# xmcd
#
# Track frame offsets: 
#        150
#        63102
#        80076
#        117135
#
# Disc length: 2219 seconds
#
# Revision: 5
# Processed by: cddbd v1.5.2PL0 Copyright (c) Steve Scherf et al.
# Submitted via: ExactAudioCopy v0.95b4
#
DISCID=2a08a904
DTITLE=T-Bone Walker, Joe Turner, Otis Spann, George "Harmonica" Smith
DTITLE=, Paul Humphrey, Ernie Watts, Arthur Wright, Ron Brown - Super 
DTITLE=Black Blues
DYEAR=2014
DGENRE=Blues
TTITLE0=Paris Blues
TTITLE1=Here Am I Broken Hearted
TTITLE2=Jot's Blues
TTITLE3=Blues Jam
EXTD=
EXTT0=
EXTT1=
EXTT2=
EXTT3=
PLAYORDER=
